<?xml version="1.0" standalone="no"?>
<!DOCTYPE svg PUBLIC "-//W3C//DTD SVG 20010904//EN"
 "http://www.w3.org/TR/2001/REC-SVG-20010904/DTD/svg10.dtd">
<svg version="1.0" xmlns="http://www.w3.org/2000/svg"
 width="160.000000pt" height="160.000000pt" viewBox="0 0 160.000000 160.000000"
 preserveAspectRatio="xMidYMid meet">
<metadata>
Created by potrace 1.11, written by Peter Selinger 2001-2013
</metadata>
<g transform="translate(0.000000,160.000000) scale(0.100000,-0.100000)"
fill="#000000" stroke="none">
<path d="M133 1283 c3 -92 6 -169 6 -170 2 -4 44 6 49 12 3 3 14 -3 24 -12 18
-16 18 -16 12 0 -7 19 15 20 28 2 5 -6 8 -6 8 2 0 7 14 10 38 9 30 -2 36 -6
34 -22 -2 -15 -1 -16 7 -4 5 8 7 18 5 22 -10 17 26 7 36 -9 11 -17 11 -17 6 0
-3 11 0 17 9 17 8 0 15 -8 15 -17 0 -14 2 -15 9 -5 6 11 13 11 37 0 16 -7 34
-17 39 -23 22 -22 56 -96 49 -107 -4 -6 -3 -8 3 -5 9 6 17 -9 54 -113 17 -50
22 -88 24 -230 3 -161 -8 -279 -41 -443 -3 -15 -2 -27 3 -26 26 4 53 -2 48
-12 -4 -6 2 -5 14 3 17 11 25 11 42 0 12 -8 19 -10 16 -5 -3 5 50 8 117 8 94
0 127 -4 142 -15 18 -14 18 -14 5 3 -12 15 -11 17 3 17 9 0 16 -6 16 -12 0
-10 2 -10 8 -1 4 7 18 11 30 8 13 -2 20 0 17 6 -4 5 -10 7 -14 5 -10 -7 -32
111 -24 131 4 9 2 14 -3 10 -6 -3 -11 3 -11 14 -1 10 4 19 10 19 9 0 9 2 1 8
-20 12 -24 95 -6 115 14 16 14 17 0 12 -18 -7 -34 10 -18 20 7 4 6 13 -1 27
-8 15 -8 19 0 14 6 -4 11 -3 11 1 0 5 11 9 24 9 14 0 22 -4 20 -8 -8 -13 11
-9 25 4 11 11 12 8 6 -12 -4 -17 -3 -21 3 -12 5 8 12 13 16 13 18 -3 27 0 22
7 -2 4 22 5 54 2 33 -3 69 -2 81 2 14 6 25 4 29 -3 6 -8 9 -8 14 0 4 6 14 11
22 11 8 0 13 -4 10 -9 -4 -5 2 -8 11 -7 9 2 19 8 21 15 3 9 7 9 18 0 8 -6 12
-15 9 -19 -3 -5 -1 -11 4 -14 11 -7 9 13 -3 33 -6 9 -5 12 5 9 18 -6 38 13 31
31 -3 9 -1 12 6 7 7 -4 12 -2 12 4 0 6 5 8 13 3 18 -11 38 -13 31 -2 -3 5 -10
7 -15 4 -5 -4 -12 1 -15 10 -6 14 -9 14 -16 3 -6 -9 -7 -3 -3 17 4 16 7 34 8
40 1 5 9 13 17 17 12 5 11 7 -3 7 -10 1 -16 5 -12 11 3 5 13 7 23 4 15 -5 14
-4 -2 10 -17 14 -17 16 -2 31 14 15 14 18 -2 43 -9 14 -12 23 -5 19 6 -4 14
-3 18 3 3 5 2 10 -2 10 -5 0 -9 9 -10 20 -1 12 3 18 9 14 7 -4 7 0 1 12 -10
22 -10 55 2 74 4 7 2 16 -6 21 -9 5 -10 9 -2 9 17 0 4 37 -15 42 -10 3 -43 4
-75 4 -45 -1 -56 2 -52 13 4 11 3 12 -10 1 -19 -16 -95 -20 -95 -6 0 6 -4 5
-9 -3 -11 -17 -87 -7 -104 14 -5 6 -7 4 -5 -4 2 -8 13 -16 23 -17 26 -4 44
-30 40 -59 -1 -14 2 -22 6 -19 5 3 9 -3 10 -13 0 -10 3 -27 6 -38 8 -33 4 -68
-10 -77 -17 -11 -97 -6 -98 6 -1 6 -1 18 0 26 2 13 1 13 -8 0 -5 -8 -7 -18 -4
-23 3 -5 -5 -6 -18 -2 -13 4 -27 12 -30 18 -9 13 -5 37 7 38 8 0 26 25 30 39
0 3 6 18 13 34 11 28 12 28 27 10 14 -18 15 -18 4 4 -6 12 -16 20 -21 16 -9
-5 -31 -49 -33 -66 -2 -12 -16 -21 -16 -9 0 20 70 151 81 151 5 0 8 4 5 8 -10
17 40 46 77 44 9 0 15 2 13 6 -2 4 9 8 25 8 16 1 26 -2 23 -7 -3 -5 0 -9 5 -9
6 0 11 5 11 10 0 6 5 10 11 10 5 0 8 -4 5 -8 -2 -4 0 -14 5 -22 8 -12 9 -11 7
4 -2 10 3 21 11 24 8 3 11 0 7 -7 -4 -6 -2 -11 3 -11 6 0 11 5 11 10 0 12 59
10 66 -2 3 -5 10 -6 15 -3 5 4 9 1 9 -4 0 -6 5 -11 11 -11 5 0 7 5 3 11 -4 8
0 8 15 0 18 -10 21 -9 22 9 1 11 3 25 4 30 1 6 3 24 4 41 1 21 5 28 14 23 10
-6 10 -4 0 7 -16 16 -17 39 -2 39 5 0 8 -4 5 -9 -3 -5 2 -15 12 -22 15 -13 16
-12 3 4 -7 9 -10 17 -5 17 5 0 2 6 -6 13 -23 18 -25 41 -3 33 17 -6 17 -5 1 8
-19 14 -25 42 -8 31 6 -3 10 -1 10 4 0 6 -4 11 -10 11 -5 0 -9 3 -9 8 1 4 1
27 0 51 l-1 43 -102 -6 c-57 -3 -114 -7 -128 -10 -28 -5 -102 -16 -140 -21
-14 -1 -52 -10 -85 -18 -75 -20 -112 -59 -173 -181 -42 -83 -61 -110 -47 -65
5 16 4 19 -5 14 -8 -5 -11 -3 -8 6 3 8 -2 20 -11 27 -9 8 -10 11 -3 7 7 -3 1
10 -13 31 -14 20 -25 43 -25 50 0 8 -4 14 -10 14 -5 0 -10 5 -10 10 0 6 -12
23 -28 39 -27 28 -93 55 -150 60 -8 1 -10 6 -6 14 5 9 4 9 -5 1 -8 -8 -25 -9
-49 -3 -20 5 -54 9 -75 9 -28 0 -36 3 -31 13 6 9 5 9 -8 0 -8 -7 -18 -10 -21
-7 -3 4 -52 8 -108 11 l-101 4 5 -168z m1327 -507 c0 -3 -4 -8 -10 -11 -5 -3
-10 -1 -10 4 0 6 5 11 10 11 6 0 10 -2 10 -4z"/>
<path d="M790 1219 c0 -5 5 -7 10 -4 6 3 10 8 10 11 0 2 -4 4 -10 4 -5 0 -10
-5 -10 -11z"/>
<path d="M1495 1199 c-4 -6 -5 -12 -2 -15 2 -3 7 2 10 11 7 17 1 20 -8 4z"/>
<path d="M1213 1115 c4 -5 -3 -15 -15 -22 -13 -7 -18 -12 -12 -13 5 0 18 6 29
13 15 12 16 15 4 22 -8 5 -10 4 -6 0z"/>
<path d="M260 1100 c-12 -7 -10 -9 7 -7 12 0 19 5 17 9 -6 10 -6 10 -24 -2z"/>
<path d="M1160 1095 c-6 -8 -10 -19 -8 -24 1 -6 8 1 15 14 13 28 11 31 -7 10z"/>
<path d="M1372 1098 c2 -7 -5 -12 -16 -11 -13 1 -15 -2 -7 -10 8 -8 15 -7 27
5 11 11 13 18 5 23 -7 4 -10 1 -9 -7z"/>
<path d="M1255 1090 c-4 -6 -10 -8 -15 -5 -10 6 -7 -21 4 -32 4 -4 6 -1 4 7
-1 8 2 14 8 13 6 -1 11 5 11 13 0 17 -4 18 -12 4z"/>
<path d="M455 1080 c3 -5 8 -10 11 -10 2 0 4 5 4 10 0 6 -5 10 -11 10 -5 0 -7
-4 -4 -10z"/>
<path d="M1125 1082 c-10 -7 -18 -32 -10 -32 2 0 9 9 15 20 12 22 11 24 -5 12z"/>
<path d="M1315 1080 c-3 -5 -1 -10 4 -10 6 0 11 5 11 10 0 6 -2 10 -4 10 -3 0
-8 -4 -11 -10z"/>
<path d="M1074 1008 c-4 -7 -3 -8 4 -4 7 4 12 2 12 -3 0 -6 5 -11 10 -11 15 0
12 17 -5 23 -8 4 -17 1 -21 -5z"/>
<path d="M1068 923 c7 -3 16 -2 19 1 4 3 -2 6 -13 5 -11 0 -14 -3 -6 -6z"/>
<path d="M1470 918 c0 -4 4 -8 9 -8 6 0 12 4 15 8 3 5 -1 9 -9 9 -8 0 -15 -4
-15 -9z"/>
<path d="M1049 888 c-6 -12 -6 -18 1 -18 5 0 10 7 10 16 0 8 4 13 9 9 5 -3 12
-2 15 3 3 5 -2 9 -10 9 -8 0 -19 -9 -25 -19z"/>
<path d="M1116 878 c3 -5 10 -6 15 -3 13 9 11 12 -6 12 -8 0 -12 -4 -9 -9z"/>
<path d="M1014 862 c2 -9 6 -16 10 -15 23 6 24 9 7 20 -16 10 -19 9 -17 -5z"/>
<path d="M1090 841 c0 -6 4 -13 10 -16 6 -3 7 1 4 9 -7 18 -14 21 -14 7z"/>
<path d="M1470 800 c0 -5 5 -10 10 -10 6 0 10 5 10 10 0 6 -4 10 -10 10 -5 0
-10 -4 -10 -10z"/>
<path d="M1495 740 c-3 -5 -1 -10 4 -10 6 0 11 5 11 10 0 6 -2 10 -4 10 -3 0
-8 -4 -11 -10z"/>
<path d="M1440 651 c0 -10 19 -25 25 -20 1 2 -3 10 -11 17 -8 7 -14 8 -14 3z"/>
<path d="M1003 533 c-7 -3 -13 -9 -13 -15 0 -6 6 -6 15 2 12 10 16 9 21 -3 3
-9 12 -18 19 -21 19 -7 9 17 -13 30 -9 6 -23 9 -29 7z"/>
<path d="M1286 523 c-6 -14 -5 -15 5 -6 7 7 10 15 7 18 -3 3 -9 -2 -12 -12z"/>
<path d="M1157 515 c-4 -8 -3 -16 1 -19 4 -3 9 4 9 15 2 23 -3 25 -10 4z"/>
<path d="M1243 519 c9 -6 14 -15 11 -21 -4 -7 -2 -8 4 -4 16 9 3 36 -17 36
-14 -1 -14 -2 2 -11z"/>
<path d="M1195 509 c-4 -6 -5 -12 -2 -15 2 -3 7 2 10 11 7 17 1 20 -8 4z"/>
<path d="M997 498 c-16 -12 -15 -13 7 -13 15 0 22 5 19 13 -3 6 -6 12 -7 12
-1 0 -10 -6 -19 -12z"/>
<path d="M1016 461 c-4 -5 3 -7 14 -4 23 6 26 13 6 13 -8 0 -17 -4 -20 -9z"/>
<path d="M1262 461 c-6 -4 -32 -6 -57 -6 l-46 2 5 -41 c3 -23 8 -68 10 -101 3
-33 8 -94 13 -135 4 -41 6 -78 5 -82 -1 -5 7 -8 18 -8 10 0 29 -10 41 -22 12
-13 18 -17 14 -9 -6 11 -2 12 21 6 34 -10 57 -10 99 -1 22 5 26 4 15 -4 -11
-8 -8 -9 14 -6 16 3 31 8 35 12 3 4 -2 4 -11 1 -10 -4 -18 -3 -18 2 0 5 9 11
20 14 14 4 20 0 21 -11 0 -20 21 23 24 51 2 9 3 22 4 28 0 5 6 7 13 3 7 -5 8
-3 2 7 -15 25 -13 70 4 67 8 -2 17 4 19 12 4 12 3 12 -5 2 -7 -11 -10 -10 -16
3 -9 24 -8 27 6 19 7 -5 8 -3 2 7 -10 17 -14 90 -4 84 4 -3 11 2 14 11 3 9 2
12 -5 9 -7 -5 -9 7 -6 34 2 23 1 42 -2 42 -3 1 -44 3 -91 3 -47 1 -91 5 -97 9
-6 4 -13 1 -16 -5 -3 -10 -7 -10 -18 -1 -8 6 -20 9 -27 4z"/>
<path d="M1535 359 c-4 -6 -5 -12 -2 -15 2 -3 7 2 10 11 7 17 1 20 -8 4z"/>
<path d="M1515 300 c3 -5 8 -10 11 -10 2 0 4 5 4 10 0 6 -5 10 -11 10 -5 0 -7
-4 -4 -10z"/>
<path d="M1030 230 c-9 -6 -10 -10 -3 -10 6 0 15 5 18 10 8 12 4 12 -15 0z"/>
<path d="M1035 200 c3 -5 8 -10 11 -10 2 0 4 5 4 10 0 6 -5 10 -11 10 -5 0 -7
-4 -4 -10z"/>
<path d="M773 135 c-3 -9 -3 -18 -1 -21 3 -3 8 4 11 16 6 23 -1 27 -10 5z"/>
<path d="M855 141 c-3 -5 0 -13 6 -17 8 -5 9 -3 4 6 -6 10 -1 12 18 8 15 -3
24 -1 21 3 -7 12 -41 11 -49 0z"/>
<path d="M920 146 c0 -2 7 -7 16 -10 8 -3 12 -2 9 4 -6 10 -25 14 -25 6z"/>
<path d="M1496 125 c4 -8 8 -15 10 -15 2 0 4 7 4 15 0 8 -4 15 -10 15 -5 0 -7
-7 -4 -15z"/>
<path d="M1493 92 c-7 -4 -9 -13 -4 -21 6 -9 10 -7 14 8 3 12 4 21 4 21 -1 0
-7 -4 -14 -8z"/>
<path d="M1350 46 c0 -2 9 -6 20 -9 11 -3 18 -1 14 4 -5 9 -34 13 -34 5z"/>
<path d="M1440 40 c-9 -6 -10 -10 -3 -10 6 0 15 5 18 10 8 12 4 12 -15 0z"/>
</g>
</svg>
